<?xml version="1.0" encoding="UTF-8"?> <svg xmlns="http://www.w3.org/2000/svg" viewBox="0 0 692.51 239.76"> <g id="Слой_2" data-name="Слой 2"> <g id="Слой_1-2" data-name="Слой 1"> <path d="M202.4,239.76h-165A37.39,37.39,0,0,1,0,202.41V37.35A37.39,37.39,0,0,1,37.35,0H202.41a37.39,37.39,0,0,1,37.35,37.35V202.41A37.41,37.41,0,0,1,202.4,239.76ZM37.35,6.5A30.89,30.89,0,0,0,6.5,37.35V202.41a30.89,30.89,0,0,0,30.85,30.85H202.41a30.89,30.89,0,0,0,30.85-30.85V37.35A30.89,30.89,0,0,0,202.41,6.5Z"></path> <path d="M35.93,102.1c18.53-30.91,53-49.37,92.17-49.37,31.4,0,58,10.17,76.77,29.42L208.09,79c-19.69-20.13-47.35-30.77-80-30.77A118.94,118.94,0,0,0,72.18,61.74,103.69,103.69,0,0,0,32.06,99.79Z"></path> <path d="M127.38,111.73c32.27,0,60.9-12.66,80.71-32.73l-4.3-1.11c-18.95,19.19-45.37,29.34-76.41,29.34-39.85,0-73.3-19.68-91.75-54l-4,2.13C41.17,73,54.28,87,70.62,96.72,87.3,106.68,106.39,111.73,127.38,111.73Z"></path> <circle cx="180.46" cy="78.32" r="3.32"></circle> <path d="M203.82,181.9c-18.53-30.91-53-49.37-92.17-49.37-31.4,0-57.95,10.17-76.77,29.42l-3.22-3.15C51.35,138.67,79,128,111.65,128a118.94,118.94,0,0,1,55.92,13.51,103.69,103.69,0,0,1,40.12,38.05Z"></path> <path d="M112.37,191.53c-32.27,0-60.9-12.66-80.71-32.73l4.3-1.11C54.91,176.88,81.33,187,112.37,187c39.85,0,73.3-19.68,91.75-54l4,2.13c-9.51,17.68-22.62,31.6-39,41.36C152.45,186.48,133.36,191.53,112.37,191.53Z"></path> <circle cx="59.29" cy="158.12" r="3.32"></circle> <path d="M338.53,86.18l8.37,1a28.89,28.89,0,0,1-2.79,7.55,32.94,32.94,0,0,1-5.29,7.18,24,24,0,0,1-8.66,5.62,31.64,31.64,0,0,1-11.82,2.13q-13,0-20.65-8.37T290,79.19q0-13.71,7.84-22.08t21.47-8.37q10.19,0,16.83,4.6a25.61,25.61,0,0,1,9.6,13.13L338,68a19.24,19.24,0,0,0-6.44-9.32q-4.72-3.81-12.27-3.82-9.76,0-15.23,6.53t-5.46,17.36q0,11.91,5.79,18.14a20.81,20.81,0,0,0,27.54,1.93Q337.21,94.56,338.53,86.18Z"></path> <path d="M358.56,50.22l16.75,37.11,15.6-37.11h8.21L382,89a79.48,79.48,0,0,1-6.49,12.56,14.18,14.18,0,0,1-6,5.21c-2.24,1-5.45,1.44-9.6,1.44H357.5v-6.73H360c3.45,0,5.88-.4,7.31-1.19s2.65-2.39,3.69-4.8l-21.1-45.23h8.7Z"></path> <path d="M409.12,50.22h37.76v51.23h7.39v19h-7.06V108.18H403v12.31H396v-19a7.73,7.73,0,0,0,4.6-2.13,19.54,19.54,0,0,0,4.19-5.91,40.23,40.23,0,0,0,3.16-10.92,97.49,97.49,0,0,0,1.19-16.17V50.22ZM416.51,57v9.36q0,27.83-8.54,35.14h31.2V57Z"></path> <path d="M509,108.18h-8.13L494.5,90.45H472.42l-6.49,17.73h-8.21l22.08-58h8ZM492.21,84l-8.46-24.22L474.88,84Z"></path> <path d="M516.34,50.22h7.72v24h13.71a13.71,13.71,0,0,0,6.32-2A8.94,8.94,0,0,0,547.5,68a32.25,32.25,0,0,0,1.6-5.34c.38-1.83.94-3.93,1.68-6.28a21.67,21.67,0,0,1,3-6.16h8.54a24.56,24.56,0,0,0-4.27,6.65,32.37,32.37,0,0,0-2.13,6.53q-.57,2.91-1.35,5.66a12.07,12.07,0,0,1-2.71,4.88,13.1,13.1,0,0,1-5.46,3.37,12.37,12.37,0,0,1,6.16,3.12,12.5,12.5,0,0,1,3.16,5.42,57.85,57.85,0,0,1,1.52,6.61,54.27,54.27,0,0,0,2,7.8,30.14,30.14,0,0,0,3.9,7.92h-8.87a18.59,18.59,0,0,1-2.75-6.36q-.94-3.81-1.48-7.1a40.68,40.68,0,0,0-1.6-6.44,9.9,9.9,0,0,0-3.86-5.09,14.77,14.77,0,0,0-7.47-2.26h-13v27.25h-7.72V50.22Z"></path> <path d="M476.91,146.68H459.59v51.23h-7.72V146.68h-17.4V140h42.44Z"></path> <path d="M487.91,140l16.75,37.11L520.26,140h8.21L511.39,178.7a79.48,79.48,0,0,1-6.49,12.56,14.18,14.18,0,0,1-6,5.21c-2.24,1-5.45,1.44-9.6,1.44h-2.46v-6.73h2.46c3.45,0,5.88-.4,7.31-1.19s2.65-2.39,3.69-4.8L479.21,140h8.7Z"></path> <path d="M538.48,140h37.76v51.23h7.39v19h-7.06V197.92H532.4v12.31h-7.06v-19a7.73,7.73,0,0,0,4.6-2.13,19.54,19.54,0,0,0,4.19-5.91,39.88,39.88,0,0,0,3.16-10.92,97.49,97.49,0,0,0,1.19-16.17V140Zm7.39,6.73V156q0,27.83-8.54,35.14h31.2v-44.5Z"></path> <path d="M638.31,197.91h-8.13l-6.32-17.73H601.78l-6.49,17.73h-8.21l22.08-58h8Zm-16.75-24.22-8.46-24.22-8.87,24.22Z"></path> <path d="M645.7,140h7.72v24h13.71a13.71,13.71,0,0,0,6.32-2,8.94,8.94,0,0,0,3.41-4.19,32.25,32.25,0,0,0,1.6-5.34c.38-1.83.94-3.93,1.68-6.28a21.67,21.67,0,0,1,3-6.16h8.54a24.56,24.56,0,0,0-4.27,6.65,32.37,32.37,0,0,0-2.13,6.53q-.57,2.91-1.35,5.66a12.07,12.07,0,0,1-2.71,4.88,13.1,13.1,0,0,1-5.46,3.37,12.37,12.37,0,0,1,6.16,3.12,12.5,12.5,0,0,1,3.16,5.42,57.85,57.85,0,0,1,1.52,6.61,54.27,54.27,0,0,0,2,7.8,30.14,30.14,0,0,0,3.9,7.92h-8.87a18.59,18.59,0,0,1-2.75-6.36q-.95-3.81-1.48-7.1a40.68,40.68,0,0,0-1.6-6.44,9.9,9.9,0,0,0-3.86-5.09,14.77,14.77,0,0,0-7.47-2.26H653.43V197.9h-7.72V140Z"></path> <rect x="583.75" y="73.9" width="107.44" height="5.9"></rect> <rect x="289.76" y="169.53" width="107.44" height="5.9"></rect> </g> </g> </svg> 